<svg xmlns="http://www.w3.org/2000/svg" viewBox="0 -0.5 180 240" shape-rendering="crispEdges">
<metadata>Made with Pixels to Svg https://codepen.io/shshaw/pen/XbxvNj</metadata>
<path stroke="#dea60b" d="M30 20h30M30 21h30M30 22h30M30 23h30M30 24h30M30 25h30M30 26h30M30 27h30M30 28h30M30 29h30M70 30h60M70 31h60M70 32h60M70 33h60M70 34h60M70 35h60M70 36h60M70 37h60M70 38h60M70 39h60M60 40h20M60 41h20M60 42h20M60 43h20M60 44h20M60 45h20M60 46h20M60 47h20M60 48h20M60 49h20M50 50h20M50 51h20M50 52h20M50 53h20M50 54h20M50 55h20M50 56h20M50 57h20M50 58h20M50 59h20M50 60h10M50 61h10M50 62h10M50 63h10M50 64h10M50 65h10M50 66h10M50 67h10M50 68h10M50 69h10M50 70h10M50 71h10M50 72h10M50 73h10M50 74h10M50 75h10M50 76h10M50 77h10M50 78h10M50 79h10M50 80h10M50 81h10M50 82h10M50 83h10M50 84h10M50 85h10M50 86h10M50 87h10M50 88h10M50 89h10M60 90h10M60 91h10M60 92h10M60 93h10M60 94h10M60 95h10M60 96h10M60 97h10M60 98h10M60 99h10M60 100h20M60 101h20M60 102h20M60 103h20M60 104h20M60 105h20M60 106h20M60 107h20M60 108h20M60 109h20M40 110h10M70 110h10M130 110h10M40 111h10M70 111h10M130 111h10M40 112h10M70 112h10M130 112h10M40 113h10M70 113h10M130 113h10M40 114h10M70 114h10M130 114h10M40 115h10M70 115h10M130 115h10M40 116h10M70 116h10M130 116h10M40 117h10M70 117h10M130 117h10M40 118h10M70 118h10M130 118h10M40 119h10M70 119h10M130 119h10M80 160h10M80 161h10M80 162h10M80 163h10M80 164h10M80 165h10M80 166h10M80 167h10M80 168h10M80 169h10M80 170h10M80 171h10M80 172h10M80 173h10M80 174h10M80 175h10M80 176h10M80 177h10M80 178h10M80 179h10M60 180h10M60 181h10M60 182h10M60 183h10M60 184h10M60 185h10M60 186h10M60 187h10M60 188h10M60 189h10" />
<path stroke="#f7ba0c" d="M60 20h30M130 20h20M60 21h30M130 21h20M60 22h30M130 22h20M60 23h30M130 23h20M60 24h30M130 24h20M60 25h30M130 25h20M60 26h30M130 26h20M60 27h30M130 27h20M60 28h30M130 28h20M60 29h30M130 29h20M130 30h10M130 31h10M130 32h10M130 33h10M130 34h10M130 35h10M130 36h10M130 37h10M130 38h10M130 39h10M80 40h40M130 40h10M80 41h40M130 41h10M80 42h40M130 42h10M80 43h40M130 43h10M80 44h40M130 44h10M80 45h40M130 45h10M80 46h40M130 46h10M80 47h40M130 47h10M80 48h40M130 48h10M80 49h40M130 49h10M20 50h10M70 50h50M130 50h10M20 51h10M70 51h50M130 51h10M20 52h10M70 52h50M130 52h10M20 53h10M70 53h50M130 53h10M20 54h10M70 54h50M130 54h10M20 55h10M70 55h50M130 55h10M20 56h10M70 56h50M130 56h10M20 57h10M70 57h50M130 57h10M20 58h10M70 58h50M130 58h10M20 59h10M70 59h50M130 59h10M10 60h10M60 60h60M130 60h10M10 61h10M60 61h60M130 61h10M10 62h10M60 62h60M130 62h10M10 63h10M60 63h60M130 63h10M10 64h10M60 64h60M130 64h10M10 65h10M60 65h60M130 65h10M10 66h10M60 66h60M130 66h10M10 67h10M60 67h60M130 67h10M10 68h10M60 68h60M130 68h10M10 69h10M60 69h60M130 69h10M10 70h10M60 70h60M130 70h10M160 70h10M10 71h10M60 71h60M130 71h10M160 71h10M10 72h10M60 72h60M130 72h10M160 72h10M10 73h10M60 73h60M130 73h10M160 73h10M10 74h10M60 74h60M130 74h10M160 74h10M10 75h10M60 75h60M130 75h10M160 75h10M10 76h10M60 76h60M130 76h10M160 76h10M10 77h10M60 77h60M130 77h10M160 77h10M10 78h10M60 78h60M130 78h10M160 78h10M10 79h10M60 79h60M130 79h10M160 79h10M10 80h10M60 80h50M130 80h10M160 80h10M10 81h10M60 81h50M130 81h10M160 81h10M10 82h10M60 82h50M130 82h10M160 82h10M10 83h10M60 83h50M130 83h10M160 83h10M10 84h10M60 84h50M130 84h10M160 84h10M10 85h10M60 85h50M130 85h10M160 85h10M10 86h10M60 86h50M130 86h10M160 86h10M10 87h10M60 87h50M130 87h10M160 87h10M10 88h10M60 88h50M130 88h10M160 88h10M10 89h10M60 89h50M130 89h10M160 89h10M10 90h10M70 90h40M120 90h20M160 90h10M10 91h10M70 91h40M120 91h20M160 91h10M10 92h10M70 92h40M120 92h20M160 92h10M10 93h10M70 93h40M120 93h20M160 93h10M10 94h10M70 94h40M120 94h20M160 94h10M10 95h10M70 95h40M120 95h20M160 95h10M10 96h10M70 96h40M120 96h20M160 96h10M10 97h10M70 97h40M120 97h20M160 97h10M10 98h10M70 98h40M120 98h20M160 98h10M10 99h10M70 99h40M120 99h20M160 99h10M20 100h10M80 100h20M120 100h10M150 100h10M20 101h10M80 101h20M120 101h10M150 101h10M20 102h10M80 102h20M120 102h10M150 102h10M20 103h10M80 103h20M120 103h10M150 103h10M20 104h10M80 104h20M120 104h10M150 104h10M20 105h10M80 105h20M120 105h10M150 105h10M20 106h10M80 106h20M120 106h10M150 106h10M20 107h10M80 107h20M120 107h10M150 107h10M20 108h10M80 108h20M120 108h10M150 108h10M20 109h10M80 109h20M120 109h10M150 109h10M30 110h10M80 110h10M110 110h10M140 110h10M30 111h10M80 111h10M110 111h10M140 111h10M30 112h10M80 112h10M110 112h10M140 112h10M30 113h10M80 113h10M110 113h10M140 113h10M30 114h10M80 114h10M110 114h10M140 114h10M30 115h10M80 115h10M110 115h10M140 115h10M30 116h10M80 116h10M110 116h10M140 116h10M30 117h10M80 117h10M110 117h10M140 117h10M30 118h10M80 118h10M110 118h10M140 118h10M30 119h10M80 119h10M110 119h10M140 119h10M80 120h40M80 121h40M80 122h40M80 123h40M80 124h40M80 125h40M80 126h40M80 127h40M80 128h40M80 129h40M90 130h20M90 131h20M90 132h20M90 133h20M90 134h20M90 135h20M90 136h20M90 137h20M90 138h20M90 139h20M90 150h10M90 151h10M90 152h10M90 153h10M90 154h10M90 155h10M90 156h10M90 157h10M90 158h10M90 159h10M90 160h10M90 161h10M90 162h10M90 163h10M90 164h10M90 165h10M90 166h10M90 167h10M90 168h10M90 169h10M90 170h10M90 171h10M90 172h10M90 173h10M90 174h10M90 175h10M90 176h10M90 177h10M90 178h10M90 179h10M70 180h40M70 181h40M70 182h40M70 183h40M70 184h40M70 185h40M70 186h40M70 187h40M70 188h40M70 189h40" />
<path stroke="#f5ffb3" d="M90 20h40M90 21h40M90 22h40M90 23h40M90 24h40M90 25h40M90 26h40M90 27h40M90 28h40M90 29h40M120 40h10M120 41h10M120 42h10M120 43h10M120 44h10M120 45h10M120 46h10M120 47h10M120 48h10M120 49h10M120 50h10M150 50h10M120 51h10M150 51h10M120 52h10M150 52h10M120 53h10M150 53h10M120 54h10M150 54h10M120 55h10M150 55h10M120 56h10M150 56h10M120 57h10M150 57h10M120 58h10M150 58h10M120 59h10M150 59h10M120 60h10M160 60h10M120 61h10M160 61h10M120 62h10M160 62h10M120 63h10M160 63h10M120 64h10M160 64h10M120 65h10M160 65h10M120 66h10M160 66h10M120 67h10M160 67h10M120 68h10M160 68h10M120 69h10M160 69h10M120 70h10M120 71h10M120 72h10M120 73h10M120 74h10M120 75h10M120 76h10M120 77h10M120 78h10M120 79h10M110 80h20M110 81h20M110 82h20M110 83h20M110 84h20M110 85h20M110 86h20M110 87h20M110 88h20M110 89h20M110 90h10M110 91h10M110 92h10M110 93h10M110 94h10M110 95h10M110 96h10M110 97h10M110 98h10M110 99h10M100 100h20M100 101h20M100 102h20M100 103h20M100 104h20M100 105h20M100 106h20M100 107h20M100 108h20M100 109h20M90 110h20M90 111h20M90 112h20M90 113h20M90 114h20M90 115h20M90 116h20M90 117h20M90 118h20M90 119h20M110 180h10M110 181h10M110 182h10M110 183h10M110 184h10M110 185h10M110 186h10M110 187h10M110 188h10M110 189h10" />
<path stroke="#cc990a" d="M40 30h30M40 31h30M40 32h30M40 33h30M40 34h30M40 35h30M40 36h30M40 37h30M40 38h30M40 39h30M40 40h20M40 41h20M40 42h20M40 43h20M40 44h20M40 45h20M40 46h20M40 47h20M40 48h20M40 49h20M30 50h20M140 50h10M30 51h20M140 51h10M30 52h20M140 52h10M30 53h20M140 53h10M30 54h20M140 54h10M30 55h20M140 55h10M30 56h20M140 56h10M30 57h20M140 57h10M30 58h20M140 58h10M30 59h20M140 59h10M40 60h10M40 61h10M40 62h10M40 63h10M40 64h10M40 65h10M40 66h10M40 67h10M40 68h10M40 69h10M40 70h10M40 71h10M40 72h10M40 73h10M40 74h10M40 75h10M40 76h10M40 77h10M40 78h10M40 79h10M40 80h10M40 81h10M40 82h10M40 83h10M40 84h10M40 85h10M40 86h10M40 87h10M40 88h10M40 89h10M40 90h20M40 91h20M40 92h20M40 93h20M40 94h20M40 95h20M40 96h20M40 97h20M40 98h20M40 99h20M50 100h10M50 101h10M50 102h10M50 103h10M50 104h10M50 105h10M50 106h10M50 107h10M50 108h10M50 109h10M50 110h20M120 110h10M50 111h20M120 111h10M50 112h20M120 112h10M50 113h20M120 113h10M50 114h20M120 114h10M50 115h20M120 115h10M50 116h20M120 116h10M50 117h20M120 117h10M50 118h20M120 118h10M50 119h20M120 119h10M60 120h20M60 121h20M60 122h20M60 123h20M60 124h20M60 125h20M60 126h20M60 127h20M60 128h20M60 129h20M70 130h20M70 131h20M70 132h20M70 133h20M70 134h20M70 135h20M70 136h20M70 137h20M70 138h20M70 139h20M80 140h20M80 141h20M80 142h20M80 143h20M80 144h20M80 145h20M80 146h20M80 147h20M80 148h20M80 149h20M80 150h10M80 151h10M80 152h10M80 153h10M80 154h10M80 155h10M80 156h10M80 157h10M80 158h10M80 159h10" />
<path stroke="#42341e" d="M50 190h80M50 191h80M50 192h80M50 193h80M50 194h80M50 195h80M50 196h80M50 197h80M50 198h80M50 199h80M50 200h10M120 200h10M50 201h10M120 201h10M50 202h10M120 202h10M50 203h10M120 203h10M50 204h10M120 204h10M50 205h10M120 205h10M50 206h10M120 206h10M50 207h10M120 207h10M50 208h10M120 208h10M50 209h10M120 209h10M50 210h80M50 211h80M50 212h80M50 213h80M50 214h80M50 215h80M50 216h80M50 217h80M50 218h80M50 219h80" />
<path stroke="#bac6db" d="M60 200h60M60 201h60M60 202h60M60 203h60M60 204h60M60 205h60M60 206h60M60 207h60M60 208h60M60 209h60" />
</svg>