<svg xmlns="http://www.w3.org/2000/svg" viewBox="0 -0.5 250 250" shape-rendering="crispEdges">
<metadata>Made with Pixels to Svg https://codepen.io/shshaw/pen/XbxvNj</metadata>
<path stroke="#000000" d="M110 30h35M110 31h35M110 32h35M110 33h35M110 34h35M95 35h15M145 35h15M95 36h15M145 36h15M95 37h15M145 37h15M95 38h15M145 38h15M95 39h15M145 39h15M90 40h5M160 40h5M90 41h5M160 41h5M90 42h5M160 42h5M90 43h5M160 43h5M90 44h5M160 44h5M85 45h5M165 45h5M85 46h5M165 46h5M85 47h5M165 47h5M85 48h5M165 48h5M85 49h5M165 49h5M80 50h5M170 50h5M80 51h5M170 51h5M80 52h5M170 52h5M80 53h5M170 53h5M80 54h5M170 54h5M80 55h5M105 55h25M140 55h10M170 55h5M80 56h5M105 56h25M140 56h10M170 56h5M80 57h5M105 57h25M140 57h10M170 57h5M80 58h5M105 58h25M140 58h10M170 58h5M80 59h5M105 59h25M140 59h10M170 59h5M75 60h5M95 60h10M130 60h5M140 60h5M150 60h10M175 60h5M75 61h5M95 61h10M130 61h5M140 61h5M150 61h10M175 61h5M75 62h5M95 62h10M130 62h5M140 62h5M150 62h10M175 62h5M75 63h5M95 63h10M130 63h5M140 63h5M150 63h10M175 63h5M75 64h5M95 64h10M130 64h5M140 64h5M150 64h10M175 64h5M75 65h5M90 65h5M125 65h5M135 65h5M160 65h5M175 65h5M75 66h5M90 66h5M125 66h5M135 66h5M160 66h5M175 66h5M75 67h5M90 67h5M125 67h5M135 67h5M160 67h5M175 67h5M75 68h5M90 68h5M125 68h5M135 68h5M160 68h5M175 68h5M75 69h5M90 69h5M125 69h5M135 69h5M160 69h5M175 69h5M75 70h5M90 70h5M125 70h10M160 70h5M175 70h5M75 71h5M90 71h5M125 71h10M160 71h5M175 71h5M75 72h5M90 72h5M125 72h10M160 72h5M175 72h5M75 73h5M90 73h5M125 73h10M160 73h5M175 73h5M75 74h5M90 74h5M125 74h10M160 74h5M175 74h5M75 75h10M90 75h5M130 75h5M160 75h5M170 75h10M75 76h10M90 76h5M130 76h5M160 76h5M170 76h10M75 77h10M90 77h5M130 77h5M160 77h5M170 77h10M75 78h10M90 78h5M130 78h5M160 78h5M170 78h10M75 79h10M90 79h5M130 79h5M160 79h5M170 79h10M75 80h15M165 80h15M75 81h15M165 81h15M75 82h15M165 82h15M75 83h15M165 83h15M75 84h15M165 84h15M75 85h5M85 85h5M100 85h15M140 85h15M165 85h5M175 85h5M75 86h5M85 86h5M100 86h15M140 86h15M165 86h5M175 86h5M75 87h5M85 87h5M100 87h15M140 87h15M165 87h5M175 87h5M75 88h5M85 88h5M100 88h15M140 88h15M165 88h5M175 88h5M75 89h5M85 89h5M100 89h15M140 89h15M165 89h5M175 89h5M95 90h5M105 90h5M115 90h5M135 90h5M145 90h5M155 90h5M95 91h5M105 91h5M115 91h5M135 91h5M145 91h5M155 91h5M95 92h5M105 92h5M115 92h5M135 92h5M145 92h5M155 92h5M95 93h5M105 93h5M115 93h5M135 93h5M145 93h5M155 93h5M95 94h5M105 94h5M115 94h5M135 94h5M145 94h5M155 94h5M110 95h10M135 95h10M110 96h10M135 96h10M110 97h10M135 97h10M110 98h10M135 98h10M110 99h10M135 99h10" />
<path stroke="#262626" d="M110 35h5M125 35h5M140 35h5M110 36h5M125 36h5M140 36h5M110 37h5M125 37h5M140 37h5M110 38h5M125 38h5M140 38h5M110 39h5M125 39h5M140 39h5M95 40h5M105 40h5M145 40h5M155 40h5M95 41h5M105 41h5M145 41h5M155 41h5M95 42h5M105 42h5M145 42h5M155 42h5M95 43h5M105 43h5M145 43h5M155 43h5M95 44h5M105 44h5M145 44h5M155 44h5M90 45h5M125 45h10M160 45h5M90 46h5M125 46h10M160 46h5M90 47h5M125 47h10M160 47h5M90 48h5M125 48h10M160 48h5M90 49h5M125 49h10M160 49h5M85 50h10M105 50h5M120 50h5M135 50h5M145 50h5M160 50h10M85 51h10M105 51h5M120 51h5M135 51h5M145 51h5M160 51h10M85 52h10M105 52h5M120 52h5M135 52h5M145 52h5M160 52h10M85 53h10M105 53h5M120 53h5M135 53h5M145 53h5M160 53h10M85 54h10M105 54h5M120 54h5M135 54h5M145 54h5M160 54h10M90 55h10M155 55h10M90 56h10M155 56h10M90 57h10M155 57h10M90 58h10M155 58h10M90 59h10M155 59h10M80 60h5M170 60h5M80 61h5M170 61h5M80 62h5M170 62h5M80 63h5M170 63h5M80 64h5M170 64h5M80 65h5M130 65h5M170 65h5M80 66h5M130 66h5M170 66h5M80 67h5M130 67h5M170 67h5M80 68h5M130 68h5M170 68h5M80 69h5M130 69h5M170 69h5M80 70h10M165 70h10M80 71h10M165 71h10M80 72h10M165 72h10M80 73h10M165 73h10M80 74h10M165 74h10M85 75h5M165 75h5M85 76h5M165 76h5M85 77h5M165 77h5M85 78h5M165 78h5M85 79h5M165 79h5" />
<path stroke="#444444" d="M115 35h10M130 35h10M115 36h10M130 36h10M115 37h10M130 37h10M115 38h10M130 38h10M115 39h10M130 39h10M100 40h5M110 40h5M125 40h5M140 40h5M150 40h5M100 41h5M110 41h5M125 41h5M140 41h5M150 41h5M100 42h5M110 42h5M125 42h5M140 42h5M150 42h5M100 43h5M110 43h5M125 43h5M140 43h5M150 43h5M100 44h5M110 44h5M125 44h5M140 44h5M150 44h5M95 45h5M105 45h5M120 45h5M135 45h5M145 45h5M155 45h5M95 46h5M105 46h5M120 46h5M135 46h5M145 46h5M155 46h5M95 47h5M105 47h5M120 47h5M135 47h5M145 47h5M155 47h5M95 48h5M105 48h5M120 48h5M135 48h5M145 48h5M155 48h5M95 49h5M105 49h5M120 49h5M135 49h5M145 49h5M155 49h5M95 50h5M115 50h5M140 50h5M155 50h5M95 51h5M115 51h5M140 51h5M155 51h5M95 52h5M115 52h5M140 52h5M155 52h5M95 53h5M115 53h5M140 53h5M155 53h5M95 54h5M115 54h5M140 54h5M155 54h5M85 55h5M100 55h5M130 55h5M150 55h5M165 55h5M85 56h5M100 56h5M130 56h5M150 56h5M165 56h5M85 57h5M100 57h5M130 57h5M150 57h5M165 57h5M85 58h5M100 58h5M130 58h5M150 58h5M165 58h5M85 59h5M100 59h5M130 59h5M150 59h5M165 59h5M85 60h10M135 60h5M160 60h10M85 61h10M135 61h5M160 61h10M85 62h10M135 62h5M160 62h10M85 63h10M135 63h5M160 63h10M85 64h10M135 64h5M160 64h10M85 65h5M165 65h5M85 66h5M165 66h5M85 67h5M165 67h5M85 68h5M165 68h5M85 69h5M165 69h5" />
<path stroke="#626262" d="M115 40h10M130 40h10M115 41h10M130 41h10M115 42h10M130 42h10M115 43h10M130 43h10M115 44h10M130 44h10M100 45h5M110 45h5M140 45h5M150 45h5M100 46h5M110 46h5M140 46h5M150 46h5M100 47h5M110 47h5M140 47h5M150 47h5M100 48h5M110 48h5M140 48h5M150 48h5M100 49h5M110 49h5M140 49h5M150 49h5M100 50h5M110 50h5M150 50h5M100 51h5M110 51h5M150 51h5M100 52h5M110 52h5M150 52h5M100 53h5M110 53h5M150 53h5M100 54h5M110 54h5M150 54h5" />
<path stroke="#808080" d="M115 45h5M115 46h5M115 47h5M115 48h5M115 49h5M125 50h10M125 51h10M125 52h10M125 53h10M125 54h10M135 55h5M135 56h5M135 57h5M135 58h5M135 59h5" />
<path stroke="#ffd9b3" d="M105 60h5M115 60h5M125 60h5M145 60h5M105 61h5M115 61h5M125 61h5M145 61h5M105 62h5M115 62h5M125 62h5M145 62h5M105 63h5M115 63h5M125 63h5M145 63h5M105 64h5M115 64h5M125 64h5M145 64h5M110 65h5M120 65h5M140 65h5M110 66h5M120 66h5M140 66h5M110 67h5M120 67h5M140 67h5M110 68h5M120 68h5M140 68h5M110 69h5M120 69h5M140 69h5M105 70h5M115 70h5M135 70h5M145 70h5M105 71h5M115 71h5M135 71h5M145 71h5M105 72h5M115 72h5M135 72h5M145 72h5M105 73h5M115 73h5M135 73h5M145 73h5M105 74h5M115 74h5M135 74h5M145 74h5M120 75h5M120 76h5M120 77h5M120 78h5M120 79h5M120 100h5M130 100h5M120 101h5M130 101h5M120 102h5M130 102h5M120 103h5M130 103h5M120 104h5M130 104h5M115 105h5M125 105h5M135 105h5M115 106h5M125 106h5M135 106h5M115 107h5M125 107h5M135 107h5M115 108h5M125 108h5M135 108h5M115 109h5M125 109h5M135 109h5M100 110h5M150 110h5M100 111h5M150 111h5M100 112h5M150 112h5M100 113h5M150 113h5M100 114h5M150 114h5M105 115h5M105 116h5M105 117h5M105 118h5M105 119h5M125 145h5M125 146h5M125 147h5M125 148h5M125 149h5M125 150h5M125 151h5M125 152h5M125 153h5M125 154h5M125 155h5M125 156h5M125 157h5M125 158h5M125 159h5M125 160h5M125 161h5M125 162h5M125 163h5M125 164h5M125 165h5M125 166h5M125 167h5M125 168h5M125 169h5M95 180h5M155 180h5M95 181h5M155 181h5M95 182h5M155 182h5M95 183h5M155 183h5M95 184h5M155 184h5M95 185h5M155 185h5M95 186h5M155 186h5M95 187h5M155 187h5M95 188h5M155 188h5M95 189h5M155 189h5" />
<path stroke="#f5bb95" d="M110 60h5M120 60h5M110 61h5M120 61h5M110 62h5M120 62h5M110 63h5M120 63h5M110 64h5M120 64h5M95 65h15M115 65h5M145 65h15M95 66h15M115 66h5M145 66h15M95 67h15M115 67h5M145 67h15M95 68h15M115 68h5M145 68h15M95 69h15M115 69h5M145 69h15M95 70h10M110 70h5M120 70h5M140 70h5M150 70h10M95 71h10M110 71h5M120 71h5M140 71h5M150 71h10M95 72h10M110 72h5M120 72h5M140 72h5M150 72h10M95 73h10M110 73h5M120 73h5M140 73h5M150 73h10M95 74h10M110 74h5M120 74h5M140 74h5M150 74h10M95 75h5M115 75h5M125 75h5M135 75h5M155 75h5M95 76h5M115 76h5M125 76h5M135 76h5M155 76h5M95 77h5M115 77h5M125 77h5M135 77h5M155 77h5M95 78h5M115 78h5M125 78h5M135 78h5M155 78h5M95 79h5M115 79h5M125 79h5M135 79h5M155 79h5M90 80h5M100 80h15M120 80h15M140 80h15M160 80h5M90 81h5M100 81h15M120 81h15M140 81h15M160 81h5M90 82h5M100 82h15M120 82h15M140 82h15M160 82h5M90 83h5M100 83h15M120 83h15M140 83h15M160 83h5M90 84h5M100 84h15M120 84h15M140 84h15M160 84h5M90 85h10M115 85h25M155 85h10M90 86h10M115 86h25M155 86h10M90 87h10M115 87h25M155 87h10M90 88h10M115 88h25M155 88h10M90 89h10M115 89h25M155 89h10M90 90h5M120 90h15M160 90h5M90 91h5M120 91h15M160 91h5M90 92h5M120 92h15M160 92h5M90 93h5M120 93h15M160 93h5M90 94h5M120 94h15M160 94h5M80 95h5M90 95h5M120 95h15M160 95h5M170 95h5M80 96h5M90 96h5M120 96h15M160 96h5M170 96h5M80 97h5M90 97h5M120 97h15M160 97h5M170 97h5M80 98h5M90 98h5M120 98h15M160 98h5M170 98h5M80 99h5M90 99h5M120 99h15M160 99h5M170 99h5M80 100h5M90 100h5M125 100h5M160 100h5M170 100h5M80 101h5M90 101h5M125 101h5M160 101h5M170 101h5M80 102h5M90 102h5M125 102h5M160 102h5M170 102h5M80 103h5M90 103h5M125 103h5M160 103h5M170 103h5M80 104h5M90 104h5M125 104h5M160 104h5M170 104h5M95 105h5M120 105h5M130 105h5M155 105h5M95 106h5M120 106h5M130 106h5M155 106h5M95 107h5M120 107h5M130 107h5M155 107h5M95 108h5M120 108h5M130 108h5M155 108h5M95 109h5M120 109h5M130 109h5M155 109h5M95 110h5M155 110h5M95 111h5M155 111h5M95 112h5M155 112h5M95 113h5M155 113h5M95 114h5M155 114h5M100 115h5M145 115h10M100 116h5M145 116h10M100 117h5M145 117h10M100 118h5M145 118h10M100 119h5M145 119h10M105 120h10M140 120h10M105 121h10M140 121h10M105 122h10M140 122h10M105 123h10M140 123h10M105 124h10M140 124h10M120 125h15M120 126h15M120 127h15M120 128h15M120 129h15M115 135h25M115 136h25M115 137h25M115 138h25M115 139h25M125 140h5M125 141h5M125 142h5M125 143h5M125 144h5M90 180h5M160 180h5M90 181h5M160 181h5M90 182h5M160 182h5M90 183h5M160 183h5M90 184h5M160 184h5M95 190h5M155 190h5M95 191h5M155 191h5M95 192h5M155 192h5M95 193h5M155 193h5M95 194h5M155 194h5" />
<path stroke="#915731" d="M100 75h15M140 75h15M100 76h15M140 76h15M100 77h15M140 77h15M100 78h15M140 78h15M100 79h15M140 79h15M95 80h5M115 80h5M135 80h5M155 80h5M95 81h5M115 81h5M135 81h5M155 81h5M95 82h5M115 82h5M135 82h5M155 82h5M95 83h5M115 83h5M135 83h5M155 83h5M95 84h5M115 84h5M135 84h5M155 84h5M80 85h5M170 85h5M80 86h5M170 86h5M80 87h5M170 87h5M80 88h5M170 88h5M80 89h5M170 89h5M75 90h5M85 90h5M165 90h5M175 90h5M75 91h5M85 91h5M165 91h5M175 91h5M75 92h5M85 92h5M165 92h5M175 92h5M75 93h5M85 93h5M165 93h5M175 93h5M75 94h5M85 94h5M165 94h5M175 94h5M75 95h5M85 95h5M95 95h5M155 95h5M165 95h5M175 95h5M75 96h5M85 96h5M95 96h5M155 96h5M165 96h5M175 96h5M75 97h5M85 97h5M95 97h5M155 97h5M165 97h5M175 97h5M75 98h5M85 98h5M95 98h5M155 98h5M165 98h5M175 98h5M75 99h5M85 99h5M95 99h5M155 99h5M165 99h5M175 99h5M75 100h5M85 100h5M115 100h5M135 100h5M165 100h5M175 100h5M75 101h5M85 101h5M115 101h5M135 101h5M165 101h5M175 101h5M75 102h5M85 102h5M115 102h5M135 102h5M165 102h5M175 102h5M75 103h5M85 103h5M115 103h5M135 103h5M165 103h5M175 103h5M75 104h5M85 104h5M115 104h5M135 104h5M165 104h5M175 104h5M80 105h10M165 105h10M80 106h10M165 106h10M80 107h10M165 107h10M80 108h10M165 108h10M80 109h10M165 109h10M85 110h5M110 110h35M165 110h5M85 111h5M110 111h35M165 111h5M85 112h5M110 112h35M165 112h5M85 113h5M110 113h35M165 113h5M85 114h5M110 114h35M165 114h5M90 115h5M110 115h5M140 115h5M160 115h5M90 116h5M110 116h5M140 116h5M160 116h5M90 117h5M110 117h5M140 117h5M160 117h5M90 118h5M110 118h5M140 118h5M160 118h5M90 119h5M110 119h5M140 119h5M160 119h5M95 120h10M115 120h25M150 120h10M95 121h10M115 121h25M150 121h10M95 122h10M115 122h25M150 122h10M95 123h10M115 123h25M150 123h10M95 124h10M115 124h25M150 124h10M105 125h10M140 125h10M105 126h10M140 126h10M105 127h10M140 127h10M105 128h10M140 128h10M105 129h10M140 129h10M115 130h25M115 131h25M115 132h25M115 133h25M115 134h25M85 175h5M165 175h5M85 176h5M165 176h5M85 177h5M165 177h5M85 178h5M165 178h5M85 179h5M165 179h5M85 180h5M165 180h5M85 181h5M165 181h5M85 182h5M165 182h5M85 183h5M165 183h5M85 184h5M165 184h5M85 185h5M165 185h5M85 186h5M165 186h5M85 187h5M165 187h5M85 188h5M165 188h5M85 189h5M165 189h5M90 190h5M160 190h5M90 191h5M160 191h5M90 192h5M160 192h5M90 193h5M160 193h5M90 194h5M160 194h5M95 195h10M150 195h10M95 196h10M150 196h10M95 197h10M150 197h10M95 198h10M150 198h10M95 199h10M150 199h10" />
<path stroke="#d79d77" d="M80 90h5M170 90h5M80 91h5M170 91h5M80 92h5M170 92h5M80 93h5M170 93h5M80 94h5M170 94h5M95 100h5M155 100h5M95 101h5M155 101h5M95 102h5M155 102h5M95 103h5M155 103h5M95 104h5M155 104h5M90 105h5M100 105h5M110 105h5M140 105h5M150 105h5M160 105h5M90 106h5M100 106h5M110 106h5M140 106h5M150 106h5M160 106h5M90 107h5M100 107h5M110 107h5M140 107h5M150 107h5M160 107h5M90 108h5M100 108h5M110 108h5M140 108h5M150 108h5M160 108h5M90 109h5M100 109h5M110 109h5M140 109h5M150 109h5M160 109h5M90 110h5M105 110h5M145 110h5M160 110h5M90 111h5M105 111h5M145 111h5M160 111h5M90 112h5M105 112h5M145 112h5M160 112h5M90 113h5M105 113h5M145 113h5M160 113h5M90 114h5M105 114h5M145 114h5M160 114h5M95 115h5M155 115h5M95 116h5M155 116h5M95 117h5M155 117h5M95 118h5M155 118h5M95 119h5M155 119h5M115 125h5M135 125h5M115 126h5M135 126h5M115 127h5M135 127h5M115 128h5M135 128h5M115 129h5M135 129h5M90 185h5M160 185h5M90 186h5M160 186h5M90 187h5M160 187h5M90 188h5M160 188h5M90 189h5M160 189h5" />
<path stroke="#c0c0c0" d="M100 90h5M150 90h5M100 91h5M150 91h5M100 92h5M150 92h5M100 93h5M150 93h5M100 94h5M150 94h5" />
<path stroke="#ffffff" d="M110 90h5M140 90h5M110 91h5M140 91h5M110 92h5M140 92h5M110 93h5M140 93h5M110 94h5M140 94h5M100 95h5M150 95h5M100 96h5M150 96h5M100 97h5M150 97h5M100 98h5M150 98h5M100 99h5M150 99h5M100 100h5M150 100h5M100 101h5M150 101h5M100 102h5M150 102h5M100 103h5M150 103h5M100 104h5M150 104h5M115 115h25M115 116h25M115 117h25M115 118h25M115 119h25" />
<path stroke="#2875a6" d="M105 95h5M145 95h5M105 96h5M145 96h5M105 97h5M145 97h5M105 98h5M145 98h5M105 99h5M145 99h5M105 100h10M140 100h10M105 101h10M140 101h10M105 102h10M140 102h10M105 103h10M140 103h10M105 104h10M140 104h10" />
<path stroke="#fff7d1" d="M105 105h5M145 105h5M105 106h5M145 106h5M105 107h5M145 107h5M105 108h5M145 108h5M105 109h5M145 109h5" />
<path stroke="#720000" d="M100 135h15M140 135h15M100 136h15M140 136h15M100 137h15M140 137h15M100 138h15M140 138h15M100 139h15M140 139h15M95 140h5M115 140h10M130 140h10M155 140h5M95 141h5M115 141h10M130 141h10M155 141h5M95 142h5M115 142h10M130 142h10M155 142h5M95 143h5M115 143h10M130 143h10M155 143h5M95 144h5M115 144h10M130 144h10M155 144h5M95 145h5M120 145h5M130 145h5M155 145h5M95 146h5M120 146h5M130 146h5M155 146h5M95 147h5M120 147h5M130 147h5M155 147h5M95 148h5M120 148h5M130 148h5M155 148h5M95 149h5M120 149h5M130 149h5M155 149h5M90 150h5M120 150h5M130 150h5M160 150h5M90 151h5M120 151h5M130 151h5M160 151h5M90 152h5M120 152h5M130 152h5M160 152h5M90 153h5M120 153h5M130 153h5M160 153h5M90 154h5M120 154h5M130 154h5M160 154h5M90 155h5M120 155h5M130 155h5M160 155h5M90 156h5M120 156h5M130 156h5M160 156h5M90 157h5M120 157h5M130 157h5M160 157h5M90 158h5M120 158h5M130 158h5M160 158h5M90 159h5M120 159h5M130 159h5M160 159h5M85 160h5M100 160h5M120 160h5M130 160h5M150 160h5M165 160h5M85 161h5M100 161h5M120 161h5M130 161h5M150 161h5M165 161h5M85 162h5M100 162h5M120 162h5M130 162h5M150 162h5M165 162h5M85 163h5M100 163h5M120 163h5M130 163h5M150 163h5M165 163h5M85 164h5M100 164h5M120 164h5M130 164h5M150 164h5M165 164h5M85 165h5M100 165h5M120 165h5M130 165h5M150 165h5M165 165h5M85 166h5M100 166h5M120 166h5M130 166h5M150 166h5M165 166h5M85 167h5M100 167h5M120 167h5M130 167h5M150 167h5M165 167h5M85 168h5M100 168h5M120 168h5M130 168h5M150 168h5M165 168h5M85 169h5M100 169h5M120 169h5M130 169h5M150 169h5M165 169h5M85 170h5M100 170h5M120 170h5M130 170h5M150 170h5M165 170h5M85 171h5M100 171h5M120 171h5M130 171h5M150 171h5M165 171h5M85 172h5M100 172h5M120 172h5M130 172h5M150 172h5M165 172h5M85 173h5M100 173h5M120 173h5M130 173h5M150 173h5M165 173h5M85 174h5M100 174h5M120 174h5M130 174h5M150 174h5M165 174h5M90 175h15M120 175h5M130 175h5M150 175h15M90 176h15M120 176h5M130 176h5M150 176h15M90 177h15M120 177h5M130 177h5M150 177h15M90 178h15M120 178h5M130 178h5M150 178h15M90 179h15M120 179h5M130 179h5M150 179h15M100 180h5M120 180h5M130 180h5M150 180h5M100 181h5M120 181h5M130 181h5M150 181h5M100 182h5M120 182h5M130 182h5M150 182h5M100 183h5M120 183h5M130 183h5M150 183h5M100 184h5M120 184h5M130 184h5M150 184h5M100 185h25M130 185h25M100 186h25M130 186h25M100 187h25M130 187h25M100 188h25M130 188h25M100 189h25M130 189h25" />
<path stroke="#d61919" d="M100 140h5M150 140h5M100 141h5M150 141h5M100 142h5M150 142h5M100 143h5M150 143h5M100 144h5M150 144h5M105 145h5M145 145h5M105 146h5M145 146h5M105 147h5M145 147h5M105 148h5M145 148h5M105 149h5M145 149h5M95 150h5M110 150h5M140 150h5M155 150h5M95 151h5M110 151h5M140 151h5M155 151h5M95 152h5M110 152h5M140 152h5M155 152h5M95 153h5M110 153h5M140 153h5M155 153h5M95 154h5M110 154h5M140 154h5M155 154h5M95 155h5M110 155h5M140 155h5M155 155h5M95 156h5M110 156h5M140 156h5M155 156h5M95 157h5M110 157h5M140 157h5M155 157h5M95 158h5M110 158h5M140 158h5M155 158h5M95 159h5M110 159h5M140 159h5M155 159h5M90 160h5M105 160h10M140 160h10M160 160h5M90 161h5M105 161h10M140 161h10M160 161h5M90 162h5M105 162h10M140 162h10M160 162h5M90 163h5M105 163h10M140 163h10M160 163h5M90 164h5M105 164h10M140 164h10M160 164h5M105 165h5M145 165h5M105 166h5M145 166h5M105 167h5M145 167h5M105 168h5M145 168h5M105 169h5M145 169h5M105 170h5M145 170h5M105 171h5M145 171h5M105 172h5M145 172h5M105 173h5M145 173h5M105 174h5M145 174h5M105 180h5M145 180h5M105 181h5M145 181h5M105 182h5M145 182h5M105 183h5M145 183h5M105 184h5M145 184h5" />
<path stroke="#b80000" d="M105 140h5M145 140h5M105 141h5M145 141h5M105 142h5M145 142h5M105 143h5M145 143h5M105 144h5M145 144h5M110 145h5M140 145h5M110 146h5M140 146h5M110 147h5M140 147h5M110 148h5M140 148h5M110 149h5M140 149h5M105 150h5M115 150h5M135 150h5M145 150h5M105 151h5M115 151h5M135 151h5M145 151h5M105 152h5M115 152h5M135 152h5M145 152h5M105 153h5M115 153h5M135 153h5M145 153h5M105 154h5M115 154h5M135 154h5M145 154h5M100 155h10M145 155h10M100 156h10M145 156h10M100 157h10M145 157h10M100 158h10M145 158h10M100 159h10M145 159h10M90 165h10M155 165h10M90 166h10M155 166h10M90 167h10M155 167h10M90 168h10M155 168h10M90 169h10M155 169h10M105 175h15M135 175h15M105 176h15M135 176h15M105 177h15M135 177h15M105 178h15M135 178h15M105 179h15M135 179h15" />
<path stroke="#f43737" d="M110 140h5M140 140h5M110 141h5M140 141h5M110 142h5M140 142h5M110 143h5M140 143h5M110 144h5M140 144h5M100 145h5M115 145h5M135 145h5M150 145h5M100 146h5M115 146h5M135 146h5M150 146h5M100 147h5M115 147h5M135 147h5M150 147h5M100 148h5M115 148h5M135 148h5M150 148h5M100 149h5M115 149h5M135 149h5M150 149h5M100 150h5M150 150h5M100 151h5M150 151h5M100 152h5M150 152h5M100 153h5M150 153h5M100 154h5M150 154h5M115 155h5M135 155h5M115 156h5M135 156h5M115 157h5M135 157h5M115 158h5M135 158h5M115 159h5M135 159h5M95 160h5M115 160h5M135 160h5M155 160h5M95 161h5M115 161h5M135 161h5M155 161h5M95 162h5M115 162h5M135 162h5M155 162h5M95 163h5M115 163h5M135 163h5M155 163h5M95 164h5M115 164h5M135 164h5M155 164h5M110 165h10M135 165h10M110 166h10M135 166h10M110 167h10M135 167h10M110 168h10M135 168h10M110 169h10M135 169h10M90 170h10M110 170h10M135 170h10M155 170h10M90 171h10M110 171h10M135 171h10M155 171h10M90 172h10M110 172h10M135 172h10M155 172h10M90 173h10M110 173h10M135 173h10M155 173h10M90 174h10M110 174h10M135 174h10M155 174h10M110 180h10M135 180h10M110 181h10M135 181h10M110 182h10M135 182h10M110 183h10M135 183h10M110 184h10M135 184h10" />
<path stroke="#151515" d="M125 170h5M125 171h5M125 172h5M125 173h5M125 174h5M125 180h5M125 181h5M125 182h5M125 183h5M125 184h5" />
<path stroke="#515151" d="M125 175h5M125 176h5M125 177h5M125 178h5M125 179h5" />
<path stroke="#badbed" d="M125 185h5M125 186h5M125 187h5M125 188h5M125 189h5M110 190h5M120 190h15M140 190h5M110 191h5M120 191h15M140 191h5M110 192h5M120 192h15M140 192h5M110 193h5M120 193h15M140 193h5M110 194h5M120 194h15M140 194h5M110 195h5M140 195h5M110 196h5M140 196h5M110 197h5M140 197h5M110 198h5M140 198h5M110 199h5M140 199h5M110 200h5M140 200h5M110 201h5M140 201h5M110 202h5M140 202h5M110 203h5M140 203h5M110 204h5M140 204h5" />
<path stroke="#567789" d="M100 190h5M150 190h5M100 191h5M150 191h5M100 192h5M150 192h5M100 193h5M150 193h5M100 194h5M150 194h5M105 195h5M120 195h15M145 195h5M105 196h5M120 196h15M145 196h5M105 197h5M120 197h15M145 197h5M105 198h5M120 198h15M145 198h5M105 199h5M120 199h15M145 199h5M105 200h5M120 200h5M130 200h5M145 200h5M105 201h5M120 201h5M130 201h5M145 201h5M105 202h5M120 202h5M130 202h5M145 202h5M105 203h5M120 203h5M130 203h5M145 203h5M105 204h5M120 204h5M130 204h5M145 204h5" />
<path stroke="#9cbdcf" d="M105 190h5M115 190h5M135 190h5M145 190h5M105 191h5M115 191h5M135 191h5M145 191h5M105 192h5M115 192h5M135 192h5M145 192h5M105 193h5M115 193h5M135 193h5M145 193h5M105 194h5M115 194h5M135 194h5M145 194h5M115 195h5M135 195h5M115 196h5M135 196h5M115 197h5M135 197h5M115 198h5M135 198h5M115 199h5M135 199h5M115 200h5M135 200h5M115 201h5M135 201h5M115 202h5M135 202h5M115 203h5M135 203h5M115 204h5M135 204h5" />
<path stroke="#004a8b" d="M105 205h5M115 205h10M130 205h10M145 205h5M105 206h5M115 206h10M130 206h10M145 206h5M105 207h5M115 207h10M130 207h10M145 207h5M105 208h5M115 208h10M130 208h10M145 208h5M105 209h5M115 209h10M130 209h10M145 209h5M105 210h5M120 210h5M130 210h5M145 210h5M105 211h5M120 211h5M130 211h5M145 211h5M105 212h5M120 212h5M130 212h5M145 212h5M105 213h5M120 213h5M130 213h5M145 213h5M105 214h5M120 214h5M130 214h5M145 214h5M100 215h25M130 215h25M100 216h25M130 216h25M100 217h25M130 217h25M100 218h25M130 218h25M100 219h25M130 219h25" />
<path stroke="#0090d1" d="M110 205h5M140 205h5M110 206h5M140 206h5M110 207h5M140 207h5M110 208h5M140 208h5M110 209h5M140 209h5M115 210h5M135 210h5M115 211h5M135 211h5M115 212h5M135 212h5M115 213h5M135 213h5M115 214h5M135 214h5" />
<path stroke="#00aeef" d="M110 210h5M140 210h5M110 211h5M140 211h5M110 212h5M140 212h5M110 213h5M140 213h5M110 214h5M140 214h5" />
<path stroke="#002000" d="M95 220h5M120 220h5M130 220h5M155 220h5M95 221h5M120 221h5M130 221h5M155 221h5M95 222h5M120 222h5M130 222h5M155 222h5M95 223h5M120 223h5M130 223h5M155 223h5M95 224h5M120 224h5M130 224h5M155 224h5M95 225h5M120 225h5M130 225h5M155 225h5M95 226h5M120 226h5M130 226h5M155 226h5M95 227h5M120 227h5M130 227h5M155 227h5M95 228h5M120 228h5M130 228h5M155 228h5M95 229h5M120 229h5M130 229h5M155 229h5M95 230h30M130 230h30M95 231h30M130 231h30M95 232h30M130 232h30M95 233h30M130 233h30M95 234h30M130 234h30" />
<path stroke="#508426" d="M100 220h5M115 220h5M135 220h5M150 220h5M100 221h5M115 221h5M135 221h5M150 221h5M100 222h5M115 222h5M135 222h5M150 222h5M100 223h5M115 223h5M135 223h5M150 223h5M100 224h5M115 224h5M135 224h5M150 224h5M115 225h5M135 225h5M115 226h5M135 226h5M115 227h5M135 227h5M115 228h5M135 228h5M115 229h5M135 229h5" />
<path stroke="#6ea244" d="M105 220h10M140 220h10M105 221h10M140 221h10M105 222h10M140 222h10M105 223h10M140 223h10M105 224h10M140 224h10M100 225h15M140 225h15M100 226h15M140 226h15M100 227h15M140 227h15M100 228h15M140 228h15M100 229h15M140 229h15" />
</svg>