<svg xmlns="http://www.w3.org/2000/svg" viewBox="0 -0.5 250 250" shape-rendering="crispEdges">
<metadata>Made with Pixels to Svg https://codepen.io/shshaw/pen/XbxvNj</metadata>
<path stroke="#000000" d="M105 20h45M105 21h45M105 22h45M105 23h45M105 24h45M95 25h15M145 25h15M95 26h15M145 26h15M95 27h15M145 27h15M95 28h15M145 28h15M95 29h15M145 29h15M90 30h5M100 30h5M150 30h5M160 30h5M90 31h5M100 31h5M150 31h5M160 31h5M90 32h5M100 32h5M150 32h5M160 32h5M90 33h5M100 33h5M150 33h5M160 33h5M90 34h5M100 34h5M150 34h5M160 34h5M85 35h5M165 35h5M85 36h5M165 36h5M85 37h5M165 37h5M85 38h5M165 38h5M85 39h5M165 39h5M80 40h5M170 40h5M80 41h5M170 41h5M80 42h5M170 42h5M80 43h5M170 43h5M80 44h5M170 44h5M80 45h5M170 45h5M80 46h5M170 46h5M80 47h5M170 47h5M80 48h5M170 48h5M80 49h5M170 49h5M75 50h5M175 50h5M75 51h5M175 51h5M75 52h5M175 52h5M75 53h5M175 53h5M75 54h5M175 54h5M75 55h5M175 55h5M75 56h5M175 56h5M75 57h5M175 57h5M75 58h5M175 58h5M75 59h5M175 59h5M75 60h5M175 60h5M75 61h5M175 61h5M75 62h5M175 62h5M75 63h5M175 63h5M75 64h5M175 64h5M75 65h5M175 65h5M75 66h5M175 66h5M75 67h5M175 67h5M75 68h5M175 68h5M75 69h5M175 69h5M75 70h5M175 70h5M75 71h5M175 71h5M75 72h5M175 72h5M75 73h5M175 73h5M75 74h5M175 74h5M100 75h10M120 75h5M140 75h15M100 76h10M120 76h5M140 76h15M100 77h10M120 77h5M140 77h15M100 78h10M120 78h5M140 78h15M100 79h10M120 79h5M140 79h15M90 80h5M110 80h10M125 80h5M135 80h10M160 80h5M90 81h5M110 81h10M125 81h5M135 81h10M160 81h5M90 82h5M110 82h10M125 82h5M135 82h10M160 82h5M90 83h5M110 83h10M125 83h5M135 83h10M160 83h5M90 84h5M110 84h10M125 84h5M135 84h10M160 84h5M75 85h10M90 85h15M120 85h15M150 85h15M170 85h10M75 86h10M90 86h15M120 86h15M150 86h15M170 86h10M75 87h10M90 87h15M120 87h15M150 87h15M170 87h10M75 88h10M90 88h15M120 88h15M150 88h15M170 88h10M75 89h10M90 89h15M120 89h15M150 89h15M170 89h10M80 90h15M125 90h5M160 90h15M80 91h15M125 91h5M160 91h15M80 92h15M125 92h5M160 92h15M80 93h15M125 93h5M160 93h15M80 94h15M125 94h5M160 94h15M85 95h5M165 95h5M85 96h5M165 96h5M85 97h5M165 97h5M85 98h5M165 98h5M85 99h5M165 99h5M85 100h10M160 100h10M85 101h10M160 101h10M85 102h10M160 102h10M85 103h10M160 103h10M85 104h10M160 104h10M95 105h65M95 106h65M95 107h65M95 108h65M95 109h65M80 115h10M165 115h10M80 116h10M165 116h10M80 117h10M165 117h10M80 118h10M165 118h10M80 119h10M165 119h10M75 120h5M175 120h5M75 121h5M175 121h5M75 122h5M175 122h5M75 123h5M175 123h5M75 124h5M175 124h5M70 125h5M100 125h5M150 125h5M180 125h5M70 126h5M100 126h5M150 126h5M180 126h5M70 127h5M100 127h5M150 127h5M180 127h5M70 128h5M100 128h5M150 128h5M180 128h5M70 129h5M100 129h5M150 129h5M180 129h5M65 130h30M100 130h5M150 130h5M160 130h30M65 131h30M100 131h5M150 131h5M160 131h30M65 132h30M100 132h5M150 132h5M160 132h30M65 133h30M100 133h5M150 133h5M160 133h30M65 134h30M100 134h5M150 134h5M160 134h30M65 135h5M95 135h10M115 135h5M135 135h5M150 135h10M185 135h5M65 136h5M95 136h10M115 136h5M135 136h5M150 136h10M185 136h5M65 137h5M95 137h10M115 137h5M135 137h5M150 137h10M185 137h5M65 138h5M95 138h10M115 138h5M135 138h5M150 138h10M185 138h5M65 139h5M95 139h10M115 139h5M135 139h5M150 139h10M185 139h5M105 140h5M115 140h5M135 140h5M145 140h5M105 141h5M115 141h5M135 141h5M145 141h5M105 142h5M115 142h5M135 142h5M145 142h5M105 143h5M115 143h5M135 143h5M145 143h5M105 144h5M115 144h5M135 144h5M145 144h5M110 145h35M110 146h35M110 147h35M110 148h35M110 149h35M90 150h5M110 150h5M125 150h5M140 150h5M160 150h5M90 151h5M110 151h5M125 151h5M140 151h5M160 151h5M90 152h5M110 152h5M125 152h5M140 152h5M160 152h5M90 153h5M110 153h5M125 153h5M140 153h5M160 153h5M90 154h5M110 154h5M125 154h5M140 154h5M160 154h5M85 155h10M105 155h5M120 155h5M130 155h5M145 155h5M160 155h10M85 156h10M105 156h5M120 156h5M130 156h5M145 156h5M160 156h10M85 157h10M105 157h5M120 157h5M130 157h5M145 157h5M160 157h10M85 158h10M105 158h5M120 158h5M130 158h5M145 158h5M160 158h10M85 159h10M105 159h5M120 159h5M130 159h5M145 159h5M160 159h10M80 160h10M105 160h5M120 160h5M130 160h5M145 160h5M165 160h10M80 161h10M105 161h5M120 161h5M130 161h5M145 161h5M165 161h10M80 162h10M105 162h5M120 162h5M130 162h5M145 162h5M165 162h10M80 163h10M105 163h5M120 163h5M130 163h5M145 163h5M165 163h10M80 164h10M105 164h5M120 164h5M130 164h5M145 164h5M165 164h10M75 165h5M85 165h5M100 165h25M130 165h25M165 165h5M175 165h5M75 166h5M85 166h5M100 166h25M130 166h25M165 166h5M175 166h5M75 167h5M85 167h5M100 167h25M130 167h25M165 167h5M175 167h5M75 168h5M85 168h5M100 168h25M130 168h25M165 168h5M175 168h5M75 169h5M85 169h5M100 169h25M130 169h25M165 169h5M175 169h5M70 170h5M100 170h5M120 170h5M130 170h5M150 170h5M180 170h5M70 171h5M100 171h5M120 171h5M130 171h5M150 171h5M180 171h5M70 172h5M100 172h5M120 172h5M130 172h5M150 172h5M180 172h5M70 173h5M100 173h5M120 173h5M130 173h5M150 173h5M180 173h5M70 174h5M100 174h5M120 174h5M130 174h5M150 174h5M180 174h5M60 175h10M100 175h5M120 175h5M130 175h5M150 175h5M185 175h10M60 176h10M100 176h5M120 176h5M130 176h5M150 176h5M185 176h10M60 177h10M100 177h5M120 177h5M130 177h5M150 177h5M185 177h10M60 178h10M100 178h5M120 178h5M130 178h5M150 178h5M185 178h10M60 179h10M100 179h5M120 179h5M130 179h5M150 179h5M185 179h10M50 180h10M85 180h5M100 180h5M120 180h5M130 180h5M150 180h5M165 180h5M195 180h10M50 181h10M85 181h5M100 181h5M120 181h5M130 181h5M150 181h5M165 181h5M195 181h10M50 182h10M85 182h5M100 182h5M120 182h5M130 182h5M150 182h5M165 182h5M195 182h10M50 183h10M85 183h5M100 183h5M120 183h5M130 183h5M150 183h5M165 183h5M195 183h10M50 184h10M85 184h5M100 184h5M120 184h5M130 184h5M150 184h5M165 184h5M195 184h10M45 185h5M85 185h5M100 185h5M120 185h5M130 185h5M150 185h5M165 185h5M205 185h5M45 186h5M85 186h5M100 186h5M120 186h5M130 186h5M150 186h5M165 186h5M205 186h5M45 187h5M85 187h5M100 187h5M120 187h5M130 187h5M150 187h5M165 187h5M205 187h5M45 188h5M85 188h5M100 188h5M120 188h5M130 188h5M150 188h5M165 188h5M205 188h5M45 189h5M85 189h5M100 189h5M120 189h5M130 189h5M150 189h5M165 189h5M205 189h5M40 190h5M90 190h5M100 190h5M120 190h5M130 190h5M150 190h5M160 190h5M210 190h5M40 191h5M90 191h5M100 191h5M120 191h5M130 191h5M150 191h5M160 191h5M210 191h5M40 192h5M90 192h5M100 192h5M120 192h5M130 192h5M150 192h5M160 192h5M210 192h5M40 193h5M90 193h5M100 193h5M120 193h5M130 193h5M150 193h5M160 193h5M210 193h5M40 194h5M90 194h5M100 194h5M120 194h5M130 194h5M150 194h5M160 194h5M210 194h5M35 195h5M95 195h5M125 195h5M155 195h5M215 195h5M35 196h5M95 196h5M125 196h5M155 196h5M215 196h5M35 197h5M95 197h5M125 197h5M155 197h5M215 197h5M35 198h5M95 198h5M125 198h5M155 198h5M215 198h5M35 199h5M95 199h5M125 199h5M155 199h5M215 199h5M35 200h25M90 200h5M160 200h5M195 200h25M35 201h25M90 201h5M160 201h5M195 201h25M35 202h25M90 202h5M160 202h5M195 202h25M35 203h25M90 203h5M160 203h5M195 203h25M35 204h25M90 204h5M160 204h5M195 204h25M35 205h5M60 205h10M85 205h5M165 205h5M185 205h10M215 205h5M35 206h5M60 206h10M85 206h5M165 206h5M185 206h10M215 206h5M35 207h5M60 207h10M85 207h5M165 207h5M185 207h10M215 207h5M35 208h5M60 208h10M85 208h5M165 208h5M185 208h10M215 208h5M35 209h5M60 209h10M85 209h5M165 209h5M185 209h10M215 209h5M70 210h5M80 210h30M120 210h15M145 210h30M180 210h5M70 211h5M80 211h30M120 211h15M145 211h30M180 211h5M70 212h5M80 212h30M120 212h15M145 212h30M180 212h5M70 213h5M80 213h30M120 213h15M145 213h30M180 213h5M70 214h5M80 214h30M120 214h15M145 214h30M180 214h5M75 215h10M100 215h5M115 215h10M130 215h10M150 215h5M170 215h10M75 216h10M100 216h5M115 216h10M130 216h10M150 216h5M170 216h10M75 217h10M100 217h5M115 217h10M130 217h10M150 217h5M170 217h10M75 218h10M100 218h5M115 218h10M130 218h10M150 218h5M170 218h10M75 219h10M100 219h5M115 219h10M130 219h10M150 219h5M170 219h10M75 220h5M95 220h5M120 220h5M130 220h5M155 220h5M175 220h5M75 221h5M95 221h5M120 221h5M130 221h5M155 221h5M175 221h5M75 222h5M95 222h5M120 222h5M130 222h5M155 222h5M175 222h5M75 223h5M95 223h5M120 223h5M130 223h5M155 223h5M175 223h5M75 224h5M95 224h5M120 224h5M130 224h5M155 224h5M175 224h5M85 225h10M120 225h5M130 225h5M160 225h10M85 226h10M120 226h5M130 226h5M160 226h10M85 227h10M120 227h5M130 227h5M160 227h10M85 228h10M120 228h5M130 228h5M160 228h10M85 229h10M120 229h5M130 229h5M160 229h10M90 230h35M130 230h35M90 231h35M130 231h35M90 232h35M130 232h35M90 233h35M130 233h35M90 234h35M130 234h35" />
<path stroke="#333333" d="M110 25h15M130 25h15M110 26h15M130 26h15M110 27h15M130 27h15M110 28h15M130 28h15M110 29h15M130 29h15M105 30h5M125 30h5M145 30h5M105 31h5M125 31h5M145 31h5M105 32h5M125 32h5M145 32h5M105 33h5M125 33h5M145 33h5M105 34h5M125 34h5M145 34h5M100 35h5M125 35h5M150 35h5M100 36h5M125 36h5M150 36h5M100 37h5M125 37h5M150 37h5M100 38h5M125 38h5M150 38h5M100 39h5M125 39h5M150 39h5M100 40h5M125 40h5M150 40h5M100 41h5M125 41h5M150 41h5M100 42h5M125 42h5M150 42h5M100 43h5M125 43h5M150 43h5M100 44h5M125 44h5M150 44h5M90 45h5M125 45h5M160 45h5M90 46h5M125 46h5M160 46h5M90 47h5M125 47h5M160 47h5M90 48h5M125 48h5M160 48h5M90 49h5M125 49h5M160 49h5M90 50h5M125 50h5M160 50h5M90 51h5M125 51h5M160 51h5M90 52h5M125 52h5M160 52h5M90 53h5M125 53h5M160 53h5M90 54h5M125 54h5M160 54h5M90 55h5M160 55h5M90 56h5M160 56h5M90 57h5M160 57h5M90 58h5M160 58h5M90 59h5M160 59h5M85 120h5M165 120h5M85 121h5M165 121h5M85 122h5M165 122h5M85 123h5M165 123h5M85 124h5M165 124h5M90 125h10M155 125h10M90 126h10M155 126h10M90 127h10M155 127h10M90 128h10M155 128h10M90 129h10M155 129h10M95 130h5M155 130h5M95 131h5M155 131h5M95 132h5M155 132h5M95 133h5M155 133h5M95 134h5M155 134h5M80 175h5M170 175h5M80 176h5M170 176h5M80 177h5M170 177h5M80 178h5M170 178h5M80 179h5M170 179h5M70 180h15M170 180h15M70 181h15M170 181h15M70 182h15M170 182h15M70 183h15M170 183h15M70 184h15M170 184h15M65 185h15M125 185h5M175 185h20M65 186h15M125 186h5M175 186h20M65 187h15M125 187h5M175 187h20M65 188h15M125 188h5M175 188h20M65 189h15M125 189h5M175 189h20M50 190h20M80 190h10M95 190h5M125 190h5M155 190h5M165 190h10M185 190h20M50 191h20M80 191h10M95 191h5M125 191h5M155 191h5M165 191h10M185 191h20M50 192h20M80 192h10M95 192h5M125 192h5M155 192h5M165 192h10M185 192h20M50 193h20M80 193h10M95 193h5M125 193h5M155 193h5M165 193h10M185 193h20M50 194h20M80 194h10M95 194h5M125 194h5M155 194h5M165 194h10M185 194h20M45 195h15M75 195h15M165 195h15M195 195h15M45 196h15M75 196h15M165 196h15M195 196h15M45 197h15M75 197h15M165 197h15M195 197h15M45 198h15M75 198h15M165 198h15M195 198h15M45 199h15M75 199h15M165 199h15M195 199h15M70 200h15M170 200h15M70 201h15M170 201h15M70 202h15M170 202h15M70 203h15M170 203h15M70 204h15M170 204h15M70 205h10M175 205h10M70 206h10M175 206h10M70 207h10M175 207h10M70 208h10M175 208h10M70 209h10M175 209h10" />
<path stroke="#151515" d="M125 25h5M125 26h5M125 27h5M125 28h5M125 29h5M95 30h5M155 30h5M95 31h5M155 31h5M95 32h5M155 32h5M95 33h5M155 33h5M95 34h5M155 34h5M90 35h10M155 35h10M90 36h10M155 36h10M90 37h10M155 37h10M90 38h10M155 38h10M90 39h10M155 39h10M85 40h15M155 40h15M85 41h15M155 41h15M85 42h15M155 42h15M85 43h15M155 43h15M85 44h15M155 44h15M85 45h5M95 45h5M155 45h5M165 45h5M85 46h5M95 46h5M155 46h5M165 46h5M85 47h5M95 47h5M155 47h5M165 47h5M85 48h5M95 48h5M155 48h5M165 48h5M85 49h5M95 49h5M155 49h5M165 49h5M80 50h10M95 50h5M155 50h5M165 50h10M80 51h10M95 51h5M155 51h5M165 51h10M80 52h10M95 52h5M155 52h5M165 52h10M80 53h10M95 53h5M155 53h5M165 53h10M80 54h10M95 54h5M155 54h5M165 54h10M80 55h10M95 55h5M155 55h5M165 55h10M80 56h10M95 56h5M155 56h5M165 56h10M80 57h10M95 57h5M155 57h5M165 57h10M80 58h10M95 58h5M155 58h5M165 58h10M80 59h10M95 59h5M155 59h5M165 59h10M80 60h10M165 60h10M80 61h10M165 61h10M80 62h10M165 62h10M80 63h10M165 63h10M80 64h10M165 64h10M80 65h5M170 65h5M80 66h5M170 66h5M80 67h5M170 67h5M80 68h5M170 68h5M80 69h5M170 69h5M90 120h5M160 120h5M90 121h5M160 121h5M90 122h5M160 122h5M90 123h5M160 123h5M90 124h5M160 124h5M80 165h5M170 165h5M80 166h5M170 166h5M80 167h5M170 167h5M80 168h5M170 168h5M80 169h5M170 169h5M75 170h10M125 170h5M170 170h10M75 171h10M125 171h5M170 171h10M75 172h10M125 172h5M170 172h10M75 173h10M125 173h5M170 173h10M75 174h10M125 174h5M170 174h10M70 175h10M175 175h10M70 176h10M175 176h10M70 177h10M175 177h10M70 178h10M175 178h10M70 179h10M175 179h10M60 180h10M125 180h5M185 180h10M60 181h10M125 181h5M185 181h10M60 182h10M125 182h5M185 182h10M60 183h10M125 183h5M185 183h10M60 184h10M125 184h5M185 184h10M50 185h15M90 185h5M160 185h5M195 185h10M50 186h15M90 186h5M160 186h5M195 186h10M50 187h15M90 187h5M160 187h5M195 187h10M50 188h15M90 188h5M160 188h5M195 188h10M50 189h15M90 189h5M160 189h5M195 189h10M45 190h5M205 190h5M45 191h5M205 191h5M45 192h5M205 192h5M45 193h5M205 193h5M45 194h5M205 194h5M40 195h5M90 195h5M160 195h5M210 195h5M40 196h5M90 196h5M160 196h5M210 196h5M40 197h5M90 197h5M160 197h5M210 197h5M40 198h5M90 198h5M160 198h5M210 198h5M40 199h5M90 199h5M160 199h5M210 199h5M85 200h5M95 200h5M125 200h5M155 200h5M165 200h5M85 201h5M95 201h5M125 201h5M155 201h5M165 201h5M85 202h5M95 202h5M125 202h5M155 202h5M165 202h5M85 203h5M95 203h5M125 203h5M155 203h5M165 203h5M85 204h5M95 204h5M125 204h5M155 204h5M165 204h5M80 205h5M90 205h10M125 205h5M155 205h10M170 205h5M80 206h5M90 206h10M125 206h5M155 206h10M170 206h5M80 207h5M90 207h10M125 207h5M155 207h10M170 207h5M80 208h5M90 208h10M125 208h5M155 208h10M170 208h5M80 209h5M90 209h10M125 209h5M155 209h10M170 209h5M75 210h5M175 210h5M75 211h5M175 211h5M75 212h5M175 212h5M75 213h5M175 213h5M75 214h5M175 214h5" />
<path stroke="#515151" d="M110 30h15M130 30h15M110 31h15M130 31h15M110 32h15M130 32h15M110 33h15M130 33h15M110 34h15M130 34h15M105 35h10M120 35h5M130 35h5M140 35h10M105 36h10M120 36h5M130 36h5M140 36h10M105 37h10M120 37h5M130 37h5M140 37h10M105 38h10M120 38h5M130 38h5M140 38h10M105 39h10M120 39h5M130 39h5M140 39h10M105 40h5M115 40h5M135 40h5M145 40h5M105 41h5M115 41h5M135 41h5M145 41h5M105 42h5M115 42h5M135 42h5M145 42h5M105 43h5M115 43h5M135 43h5M145 43h5M105 44h5M115 44h5M135 44h5M145 44h5M100 45h15M140 45h15M100 46h15M140 46h15M100 47h15M140 47h15M100 48h15M140 48h15M100 49h15M140 49h15M100 50h10M145 50h10M100 51h10M145 51h10M100 52h10M145 52h10M100 53h10M145 53h10M100 54h10M145 54h10M80 120h5M170 120h5M80 121h5M170 121h5M80 122h5M170 122h5M80 123h5M170 123h5M80 124h5M170 124h5M75 125h15M165 125h15M75 126h15M165 126h15M75 127h15M165 127h15M75 128h15M165 128h15M75 129h15M165 129h15M125 175h5M125 176h5M125 177h5M125 178h5M125 179h5M80 185h5M95 185h5M155 185h5M170 185h5M80 186h5M95 186h5M155 186h5M170 186h5M80 187h5M95 187h5M155 187h5M170 187h5M80 188h5M95 188h5M155 188h5M170 188h5M80 189h5M95 189h5M155 189h5M170 189h5M70 190h10M175 190h10M70 191h10M175 191h10M70 192h10M175 192h10M70 193h10M175 193h10M70 194h10M175 194h10M60 195h15M180 195h15M60 196h15M180 196h15M60 197h15M180 197h15M60 198h15M180 198h15M60 199h15M180 199h15M60 200h10M185 200h10M60 201h10M185 201h10M60 202h10M185 202h10M60 203h10M185 203h10M60 204h10M185 204h10" />
<path stroke="#6f6f6f" d="M115 35h5M135 35h5M115 36h5M135 36h5M115 37h5M135 37h5M115 38h5M135 38h5M115 39h5M135 39h5M110 40h5M120 40h5M130 40h5M140 40h5M110 41h5M120 41h5M130 41h5M140 41h5M110 42h5M120 42h5M130 42h5M140 42h5M110 43h5M120 43h5M130 43h5M140 43h5M110 44h5M120 44h5M130 44h5M140 44h5M115 45h10M130 45h10M115 46h10M130 46h10M115 47h10M130 47h10M115 48h10M130 48h10M115 49h10M130 49h10M110 50h15M130 50h15M110 51h15M130 51h15M110 52h15M130 52h15M110 53h15M130 53h15M110 54h15M130 54h15" />
<path stroke="#242424" d="M100 55h55M100 56h55M100 57h55M100 58h55M100 59h55M90 60h10M155 60h10M90 61h10M155 61h10M90 62h10M155 62h10M90 63h10M155 63h10M90 64h10M155 64h10M85 65h5M165 65h5M85 66h5M165 66h5M85 67h5M165 67h5M85 68h5M165 68h5M85 69h5M165 69h5M80 70h5M100 70h55M170 70h5M80 71h5M100 71h55M170 71h5M80 72h5M100 72h55M170 72h5M80 73h5M100 73h55M170 73h5M80 74h5M100 74h55M170 74h5M75 75h5M90 75h10M155 75h10M175 75h5M75 76h5M90 76h10M155 76h10M175 76h5M75 77h5M90 77h10M155 77h10M175 77h5M75 78h5M90 78h10M155 78h10M175 78h5M75 79h5M90 79h10M155 79h10M175 79h5M75 80h15M165 80h15M75 81h15M165 81h15M75 82h15M165 82h15M75 83h15M165 83h15M75 84h15M165 84h15M95 140h5M155 140h5M95 141h5M155 141h5M95 142h5M155 142h5M95 143h5M155 143h5M95 144h5M155 144h5M90 145h5M160 145h5M90 146h5M160 146h5M90 147h5M160 147h5M90 148h5M160 148h5M90 149h5M160 149h5M95 150h15M145 150h15M95 151h15M145 151h15M95 152h15M145 152h15M95 153h15M145 153h15M95 154h15M145 154h15" />
<path stroke="#a6a6a6" d="M100 60h5M150 60h5M100 61h5M150 61h5M100 62h5M150 62h5M100 63h5M150 63h5M100 64h5M150 64h5M95 65h10M150 65h10M95 66h10M150 66h10M95 67h10M150 67h10M95 68h10M150 68h10M95 69h10M150 69h10M100 145h5M150 145h5M100 146h5M150 146h5M100 147h5M150 147h5M100 148h5M150 148h5M100 149h5M150 149h5" />
<path stroke="#c4c4c4" d="M105 60h45M105 61h45M105 62h45M105 63h45M105 64h45" />
<path stroke="#6a6a6a" d="M90 65h5M110 65h35M160 65h5M90 66h5M110 66h35M160 66h5M90 67h5M110 67h35M160 67h5M90 68h5M110 68h35M160 68h5M90 69h5M110 69h35M160 69h5M85 70h5M95 70h5M155 70h5M165 70h5M85 71h5M95 71h5M155 71h5M165 71h5M85 72h5M95 72h5M155 72h5M165 72h5M85 73h5M95 73h5M155 73h5M165 73h5M85 74h5M95 74h5M155 74h5M165 74h5M80 75h10M165 75h10M80 76h10M165 76h10M80 77h10M165 77h10M80 78h10M165 78h10M80 79h10M165 79h10" />
<path stroke="#888888" d="M105 65h5M145 65h5M105 66h5M145 66h5M105 67h5M145 67h5M105 68h5M145 68h5M105 69h5M145 69h5M90 70h5M160 70h5M90 71h5M160 71h5M90 72h5M160 72h5M90 73h5M160 73h5M90 74h5M160 74h5M100 140h5M150 140h5M100 141h5M150 141h5M100 142h5M150 142h5M100 143h5M150 143h5M100 144h5M150 144h5M95 145h5M105 145h5M145 145h5M155 145h5M95 146h5M105 146h5M145 146h5M155 146h5M95 147h5M105 147h5M145 147h5M155 147h5M95 148h5M105 148h5M145 148h5M155 148h5M95 149h5M105 149h5M145 149h5M155 149h5" />
<path stroke="#d79d77" d="M110 75h5M110 76h5M110 77h5M110 78h5M110 79h5M120 80h5M120 81h5M120 82h5M120 83h5M120 84h5M90 105h5M160 105h5M90 106h5M160 106h5M90 107h5M160 107h5M90 108h5M160 108h5M90 109h5M160 109h5M90 110h5M160 110h5M90 111h5M160 111h5M90 112h5M160 112h5M90 113h5M160 113h5M90 114h5M160 114h5M95 115h5M155 115h5M95 116h5M155 116h5M95 117h5M155 117h5M95 118h5M155 118h5M95 119h5M155 119h5M115 125h5M135 125h5M115 126h5M135 126h5M115 127h5M135 127h5M115 128h5M135 128h5M115 129h5M135 129h5" />
<path stroke="#f5bb95" d="M115 75h5M115 76h5M115 77h5M115 78h5M115 79h5M80 95h5M170 95h5M80 96h5M170 96h5M80 97h5M170 97h5M80 98h5M170 98h5M80 99h5M170 99h5M80 100h5M170 100h5M80 101h5M170 101h5M80 102h5M170 102h5M80 103h5M170 103h5M80 104h5M170 104h5M95 110h25M135 110h25M95 111h25M135 111h25M95 112h25M135 112h25M95 113h25M135 113h25M95 114h25M135 114h25M100 115h5M145 115h10M100 116h5M145 116h10M100 117h5M145 117h10M100 118h5M145 118h10M100 119h5M145 119h10M105 120h10M140 120h10M105 121h10M140 121h10M105 122h10M140 122h10M105 123h10M140 123h10M105 124h10M140 124h10" />
<path stroke="#262626" d="M125 75h5M135 75h5M125 76h5M135 76h5M125 77h5M135 77h5M125 78h5M135 78h5M125 79h5M135 79h5M95 80h5M130 80h5M155 80h5M95 81h5M130 81h5M155 81h5M95 82h5M130 82h5M155 82h5M95 83h5M130 83h5M155 83h5M95 84h5M130 84h5M155 84h5M85 85h5M105 85h5M145 85h5M165 85h5M85 86h5M105 86h5M145 86h5M165 86h5M85 87h5M105 87h5M145 87h5M165 87h5M85 88h5M105 88h5M145 88h5M165 88h5M85 89h5M105 89h5M145 89h5M165 89h5M110 90h5M140 90h5M110 91h5M140 91h5M110 92h5M140 92h5M110 93h5M140 93h5M110 94h5M140 94h5M90 95h10M115 95h5M135 95h5M155 95h10M90 96h10M115 96h5M135 96h5M155 96h10M90 97h10M115 97h5M135 97h5M155 97h10M90 98h10M115 98h5M135 98h5M155 98h10M90 99h10M115 99h5M135 99h5M155 99h10M95 100h20M140 100h20M95 101h20M140 101h20M95 102h20M140 102h20M95 103h20M140 103h20M95 104h20M140 104h20M110 130h5M140 130h5M110 131h5M140 131h5M110 132h5M140 132h5M110 133h5M140 133h5M110 134h5M140 134h5M100 160h5M150 160h5M100 161h5M150 161h5M100 162h5M150 162h5M100 163h5M150 163h5M100 164h5M150 164h5" />
<path stroke="#626262" d="M130 75h5M130 76h5M130 77h5M130 78h5M130 79h5M105 80h5M145 80h5M105 81h5M145 81h5M105 82h5M145 82h5M105 83h5M145 83h5M105 84h5M145 84h5M110 85h5M140 85h5M110 86h5M140 86h5M110 87h5M140 87h5M110 88h5M140 88h5M110 89h5M140 89h5M120 100h15M120 101h15M120 102h15M120 103h15M120 104h15M110 135h5M140 135h5M110 136h5M140 136h5M110 137h5M140 137h5M110 138h5M140 138h5M110 139h5M140 139h5M120 140h15M120 141h15M120 142h15M120 143h15M120 144h15M120 150h5M130 150h5M120 151h5M130 151h5M120 152h5M130 152h5M120 153h5M130 153h5M120 154h5M130 154h5M100 155h5M115 155h5M135 155h5M100 156h5M115 156h5M135 156h5M100 157h5M115 157h5M135 157h5M100 158h5M115 158h5M135 158h5M100 159h5M115 159h5M135 159h5M95 160h5M110 160h10M135 160h10M155 160h5M95 161h5M110 161h10M135 161h10M155 161h5M95 162h5M110 162h10M135 162h10M155 162h5M95 163h5M110 163h10M135 163h10M155 163h5M95 164h5M110 164h10M135 164h10M155 164h5M95 165h5M155 165h5M95 166h5M155 166h5M95 167h5M155 167h5M95 168h5M155 168h5M95 169h5M155 169h5M110 170h10M135 170h10M110 171h10M135 171h10M110 172h10M135 172h10M110 173h10M135 173h10M110 174h10M135 174h10M110 175h10M135 175h10M110 176h10M135 176h10M110 177h10M135 177h10M110 178h10M135 178h10M110 179h10M135 179h10M110 180h10M135 180h10M110 181h10M135 181h10M110 182h10M135 182h10M110 183h10M135 183h10M110 184h10M135 184h10M110 185h10M135 185h10M110 186h10M135 186h10M110 187h10M135 187h10M110 188h10M135 188h10M110 189h10M135 189h10M110 190h10M135 190h10M110 191h10M135 191h10M110 192h10M135 192h10M110 193h10M135 193h10M110 194h10M135 194h10" />
<path stroke="#444444" d="M100 80h5M150 80h5M100 81h5M150 81h5M100 82h5M150 82h5M100 83h5M150 83h5M100 84h5M150 84h5M115 85h5M135 85h5M115 86h5M135 86h5M115 87h5M135 87h5M115 88h5M135 88h5M115 89h5M135 89h5M115 90h10M130 90h10M115 91h10M130 91h10M115 92h10M130 92h10M115 93h10M130 93h10M115 94h10M130 94h10M120 95h15M120 96h15M120 97h15M120 98h15M120 99h15M115 100h5M135 100h5M115 101h5M135 101h5M115 102h5M135 102h5M115 103h5M135 103h5M115 104h5M135 104h5M105 130h5M145 130h5M105 131h5M145 131h5M105 132h5M145 132h5M105 133h5M145 133h5M105 134h5M145 134h5M105 135h5M120 135h15M145 135h5M105 136h5M120 136h15M145 136h5M105 137h5M120 137h15M145 137h5M105 138h5M120 138h15M145 138h5M105 139h5M120 139h15M145 139h5M110 140h5M140 140h5M110 141h5M140 141h5M110 142h5M140 142h5M110 143h5M140 143h5M110 144h5M140 144h5M115 150h5M135 150h5M115 151h5M135 151h5M115 152h5M135 152h5M115 153h5M135 153h5M115 154h5M135 154h5M95 155h5M110 155h5M140 155h5M150 155h10M95 156h5M110 156h5M140 156h5M150 156h10M95 157h5M110 157h5M140 157h5M150 157h10M95 158h5M110 158h5M140 158h5M150 158h10M95 159h5M110 159h5M140 159h5M150 159h10M90 160h5M160 160h5M90 161h5M160 161h5M90 162h5M160 162h5M90 163h5M160 163h5M90 164h5M160 164h5M90 165h5M160 165h5M90 166h5M160 166h5M90 167h5M160 167h5M90 168h5M160 168h5M90 169h5M160 169h5M105 170h5M145 170h5M105 171h5M145 171h5M105 172h5M145 172h5M105 173h5M145 173h5M105 174h5M145 174h5M105 175h5M145 175h5M105 176h5M145 176h5M105 177h5M145 177h5M105 178h5M145 178h5M105 179h5M145 179h5M105 180h5M145 180h5M105 181h5M145 181h5M105 182h5M145 182h5M105 183h5M145 183h5M105 184h5M145 184h5M105 185h5M145 185h5M105 186h5M145 186h5M105 187h5M145 187h5M105 188h5M145 188h5M105 189h5M145 189h5M105 190h5M145 190h5M105 191h5M145 191h5M105 192h5M145 192h5M105 193h5M145 193h5M105 194h5M145 194h5" />
<path stroke="#915731" d="M75 90h5M175 90h5M75 91h5M175 91h5M75 92h5M175 92h5M75 93h5M175 93h5M75 94h5M175 94h5M75 95h5M175 95h5M75 96h5M175 96h5M75 97h5M175 97h5M75 98h5M175 98h5M75 99h5M175 99h5M75 100h5M175 100h5M75 101h5M175 101h5M75 102h5M175 102h5M75 103h5M175 103h5M75 104h5M175 104h5M80 105h10M165 105h10M80 106h10M165 106h10M80 107h10M165 107h10M80 108h10M165 108h10M80 109h10M165 109h10M85 110h5M120 110h15M165 110h5M85 111h5M120 111h15M165 111h5M85 112h5M120 112h15M165 112h5M85 113h5M120 113h15M165 113h5M85 114h5M120 114h15M165 114h5M90 115h5M115 115h5M135 115h5M160 115h5M90 116h5M115 116h5M135 116h5M160 116h5M90 117h5M115 117h5M135 117h5M160 117h5M90 118h5M115 118h5M135 118h5M160 118h5M90 119h5M115 119h5M135 119h5M160 119h5M95 120h10M115 120h5M135 120h5M150 120h10M95 121h10M115 121h5M135 121h5M150 121h10M95 122h10M115 122h5M135 122h5M150 122h10M95 123h10M115 123h5M135 123h5M150 123h10M95 124h10M115 124h5M135 124h5M150 124h10M105 125h10M120 125h15M140 125h10M105 126h10M120 126h15M140 126h10M105 127h10M120 127h15M140 127h10M105 128h10M120 128h15M140 128h10M105 129h10M120 129h15M140 129h10M115 130h25M115 131h25M115 132h25M115 133h25M115 134h25" />
<path stroke="#85c446" d="M95 90h5M105 90h5M145 90h5M155 90h5M95 91h5M105 91h5M145 91h5M155 91h5M95 92h5M105 92h5M145 92h5M155 92h5M95 93h5M105 93h5M145 93h5M155 93h5M95 94h5M105 94h5M145 94h5M155 94h5M100 95h5M110 95h5M140 95h5M150 95h5M100 96h5M110 96h5M140 96h5M150 96h5M100 97h5M110 97h5M140 97h5M150 97h5M100 98h5M110 98h5M140 98h5M150 98h5M100 99h5M110 99h5M140 99h5M150 99h5" />
<path stroke="#a3e264" d="M100 90h5M150 90h5M100 91h5M150 91h5M100 92h5M150 92h5M100 93h5M150 93h5M100 94h5M150 94h5M105 95h5M145 95h5M105 96h5M145 96h5M105 97h5M145 97h5M105 98h5M145 98h5M105 99h5M145 99h5" />
<path stroke="#ffd9b3" d="M105 115h10M140 115h5M105 116h10M140 116h5M105 117h10M140 117h5M105 118h10M140 118h5M105 119h10M140 119h5M125 155h5M125 156h5M125 157h5M125 158h5M125 159h5M125 160h5M125 161h5M125 162h5M125 163h5M125 164h5M125 165h5M125 166h5M125 167h5M125 168h5M125 169h5" />
<path stroke="#c0c0c0" d="M120 115h15M120 116h15M120 117h15M120 118h15M120 119h15" />
<path stroke="#ffffff" d="M120 120h15M120 121h15M120 122h15M120 123h15M120 124h15" />
<path stroke="#020202" d="M85 170h5M165 170h5M85 171h5M165 171h5M85 172h5M165 172h5M85 173h5M165 173h5M85 174h5M165 174h5M85 175h5M165 175h5M85 176h5M165 176h5M85 177h5M165 177h5M85 178h5M165 178h5M85 179h5M165 179h5M90 180h10M155 180h10M90 181h10M155 181h10M90 182h10M155 182h10M90 183h10M155 183h10M90 184h10M155 184h10M100 195h5M120 195h5M130 195h5M150 195h5M100 196h5M120 196h5M130 196h5M150 196h5M100 197h5M120 197h5M130 197h5M150 197h5M100 198h5M120 198h5M130 198h5M150 198h5M100 199h5M120 199h5M130 199h5M150 199h5M100 200h5M120 200h5M130 200h5M150 200h5M100 201h5M120 201h5M130 201h5M150 201h5M100 202h5M120 202h5M130 202h5M150 202h5M100 203h5M120 203h5M130 203h5M150 203h5M100 204h5M120 204h5M130 204h5M150 204h5M100 205h25M130 205h25M100 206h25M130 206h25M100 207h25M130 207h25M100 208h25M130 208h25M100 209h25M130 209h25" />
<path stroke="#484848" d="M90 170h10M155 170h10M90 171h10M155 171h10M90 172h10M155 172h10M90 173h10M155 173h10M90 174h10M155 174h10M105 195h15M135 195h15M105 196h15M135 196h15M105 197h15M135 197h15M105 198h15M135 198h15M105 199h15M135 199h15" />
<path stroke="#848484" d="M90 175h10M155 175h10M90 176h10M155 176h10M90 177h10M155 177h10M90 178h10M155 178h10M90 179h10M155 179h10M110 200h10M135 200h10M110 201h10M135 201h10M110 202h10M135 202h10M110 203h10M135 203h10M110 204h10M135 204h10" />
<path stroke="#666666" d="M105 200h5M145 200h5M105 201h5M145 201h5M105 202h5M145 202h5M105 203h5M145 203h5M105 204h5M145 204h5" />
<path stroke="#555555" d="M110 210h10M135 210h10M110 211h10M135 211h10M110 212h10M135 212h10M110 213h10M135 213h10M110 214h10M135 214h10M100 220h5M115 220h5M135 220h5M150 220h5M100 221h5M115 221h5M135 221h5M150 221h5M100 222h5M115 222h5M135 222h5M150 222h5M100 223h5M115 223h5M135 223h5M150 223h5M100 224h5M115 224h5M135 224h5M150 224h5M95 225h5M115 225h5M135 225h5M155 225h5M95 226h5M115 226h5M135 226h5M155 226h5M95 227h5M115 227h5M135 227h5M155 227h5M95 228h5M115 228h5M135 228h5M155 228h5M95 229h5M115 229h5M135 229h5M155 229h5" />
<path stroke="#373737" d="M105 215h10M140 215h10M105 216h10M140 216h10M105 217h10M140 217h10M105 218h10M140 218h10M105 219h10M140 219h10" />
<path stroke="#737373" d="M105 220h10M140 220h10M105 221h10M140 221h10M105 222h10M140 222h10M105 223h10M140 223h10M105 224h10M140 224h10M100 225h15M140 225h15M100 226h15M140 226h15M100 227h15M140 227h15M100 228h15M140 228h15M100 229h15M140 229h15" />
</svg>